<svg xmlns="http://www.w3.org/2000/svg" viewBox="0 0 60 60"><defs><style>.a{fill:#fff;}</style></defs><title>Asset 1</title><path d="M0,0H60a0,0,0,0,1,0,0V57.79A2.21,2.21,0,0,1,57.79,60H2.21A2.21,2.21,0,0,1,0,57.79V0A0,0,0,0,1,0,0Z"/><path class="a" d="M16.47,40V14a1,1,0,0,1,.49-.84,1.86,1.86,0,0,1,1.09-.35,1.94,1.94,0,0,1,1.14.34,1,1,0,0,1,.49.84v9.89h6.38a1,1,0,0,1,.82.4,1.58,1.58,0,0,1,0,1.91,1,1,0,0,1-.82.4H19.69V39.91a4.51,4.51,0,0,0,1,3.36,5.22,5.22,0,0,0,3.58,1h1.38a1.42,1.42,0,0,1,1.06.43,1.45,1.45,0,0,1,.42,1,1.54,1.54,0,0,1-.42,1.07,1.38,1.38,0,0,1-1.06.46H24.28Q16.47,47.24,16.47,40Z"/><path class="a" d="M26.89,37.35a1.66,1.66,0,0,1,.2-.84L37.84,13.74a1.62,1.62,0,0,1,1.53-1,1.74,1.74,0,0,1,1.06.4,1.16,1.16,0,0,1,.52.94,1.64,1.64,0,0,1-.15.64L31,35.63h9.69V26q0-1.25,1.63-1.25a2,2,0,0,1,1.14.32A1,1,0,0,1,44,26v9.63h2.72a1.05,1.05,0,0,1,.91.45,1.83,1.83,0,0,1,0,2.11,1.07,1.07,0,0,1-.89.45H44v7.3a1.11,1.11,0,0,1-.49,1,1.92,1.92,0,0,1-1.14.35,1.89,1.89,0,0,1-1.16-.35,1.12,1.12,0,0,1-.47-1v-7.3H28.17A1.14,1.14,0,0,1,26.89,37.35Z"/></svg>